<?xml version="1.0" encoding="UTF-8"?>
<svg id="Layer_1" xmlns="http://www.w3.org/2000/svg" viewBox="0 0 392.89 172.44">
  <defs>
    <style>
      .cls-1, .cls-2 {
        fill: #e11822;
      }

      .cls-1, .cls-3 {
        stroke: #231f20;
        stroke-miterlimit: 10;
        stroke-width: 1.5px;
      }

      .cls-3 {
        fill: #fff;
      }
    </style>
  </defs>
  <polygon class="cls-3" points="74.68 48.42 70.58 66.31 49.21 66.31 53.31 48.42 41.88 48.42 31.7 92.79 43.12 92.79 46.61 77.62 67.98 77.62 64.49 92.79 75.92 92.79 86.1 48.42 74.68 48.42"/>
  <polygon class="cls-3" points="188.87 48.42 177.44 48.42 171.09 76.12 156.1 48.43 156.1 48.42 156.09 48.42 156.09 48.42 156.08 48.42 144.68 48.42 134.49 92.79 145.92 92.79 152.27 65.13 167.26 92.83 167.33 92.79 178.68 92.79 188.87 48.42"/>
  <path class="cls-3" d="M125.62,48.42l-7.15,31.17c-.25,1.1-1.23,1.88-2.36,1.88h-17.52c-.56,0-.97-.52-.84-1.06l7.34-31.99h-11.43l-6.88,30.01c-.46,2.02-.66,4.08-.57,6.15h0c.12,2.93,1.66,5.62,4.12,7.21h0c1.01.65,2.19,1,3.39,1h20.76c1.61,0,3.22-.17,4.79-.52,4.77-2.01,8.47-5.93,10.2-10.8l7.58-33.05h-11.43Z"/>
  <polygon class="cls-1" points="239.63 48.42 196.72 48.42 194.16 59.73 209.72 59.73 202.12 92.77 213.54 92.77 221.14 59.73 237.08 59.73 239.63 48.42"/>
  <path class="cls-1" d="M328.95,76.09c.53-.01,1.37-.08,2.35-.33,5.42-1.42,7.94-6.92,8.44-8.1,1.29-3.01,1.25-5.63,1.22-6.79-.05-2-.11-4.77-1.98-7.5-.22-.32-2.9-4.11-7.68-4.84-.92-.14-1.7-.14-2.24-.1h-73.07s-7.81,0-7.81,0l-10.19,44.3h43.3l2.6-11.32h-31.87l.95-4.14h31.87l2.6-11.32h-31.87l1.43-6.21h71.94c1.34.49,2.22,1.77,2.19,3.18-.03,1.35-.9,2.56-2.19,3.03h-33.42l-2.6,11.32h13.66l14.12,15.53h16.89l-15.19-16.7h6.54Z"/>
  <polygon class="cls-2" points="28.07 100.83 23.99 118.57 271.82 118.57 275.9 100.83 28.07 100.83"/>
  <polygon class="cls-2" points="282.59 100.83 278.51 118.57 295.01 118.57 299.09 100.83 282.59 100.83"/>
  <polygon class="cls-2" points="324.47 100.83 320.39 118.57 336.9 118.57 340.98 100.83 324.47 100.83"/>
  <polygon class="cls-2" points="304.31 100.83 300.24 118.57 315.17 118.57 319.25 100.83 304.31 100.83"/>
  <g>
    <path d="M36.17,126.31c6.92,0,8.58,4.5,7.64,8.79s-4.58,8.79-11.5,8.79-8.58-4.5-7.64-8.79,4.58-8.79,11.5-8.79ZM35.69,128.47c-3.93,0-7.5,2.2-8.46,6.63-.96,4.43,1.64,6.63,5.57,6.63s7.5-2.2,8.46-6.63c.96-4.43-1.64-6.63-5.57-6.63Z"/>
    <path d="M48.42,126.73h13.33l-.48,2.16h-10.78l-1.08,4.95h10.27l-.46,2.16h-10.27l-1.64,7.48h-2.56l3.66-16.73Z"/>
    <path d="M64.26,126.73h2.56l-3.66,16.73h-2.56l3.66-16.73Z"/>
    <path d="M83.57,132.76c.12-2.32-1.33-4.29-4.94-4.29-4.07,0-7.16,2.27-8.15,6.84-.7,3.16.36,6.42,5.11,6.42,3.01,0,5.59-1.41,7.04-4.66h2.55c-1.23,3.7-5.18,6.82-10.1,6.82-4.34,0-8.53-2.32-7.11-8.84,1.08-4.88,5.06-8.74,10.95-8.74,3.45,0,7.88,1.43,7.21,6.45h-2.56Z"/>
    <path d="M90.62,126.73h2.56l-3.66,16.73h-2.56l3.66-16.73Z"/>
    <path d="M99.06,130.16h-.05l-2.92,13.31h-2.56l3.67-16.73h2.96l8.15,13.31h.05l2.92-13.31h2.56l-3.66,16.73h-2.97l-8.15-13.31Z"/>
    <path d="M126.47,138.59h-8.44l-3.25,4.88h-2.75l11.45-16.73h2.92l4.12,16.73h-2.92l-1.13-4.88ZM124.33,129.03l-4.85,7.41h6.53l-1.69-7.41Z"/>
  </g>
  <g>
    <path d="M143.44,126.73h13.26l-.46,2.16h-10.81l-1.02,4.85h10.49l-.44,2.16h-10.49l-1.13,5.41h11.04l-.46,2.16h-13.49l3.51-16.73Z"/>
    <path d="M158.39,137.96c-.58,3,2.03,3.77,4.53,3.77s4.67-1.01,5.04-2.84c.32-1.52-.72-2.16-2.54-2.48l-3.6-.63c-1.89-.33-4.67-1.12-4-4.38.65-3.05,3.47-5.09,7.69-5.09,3.3,0,6.54,1.22,5.91,5.25h-2.45c.07-1.31-.3-3.09-4.25-3.09-1.8,0-4,.77-4.41,2.74-.21,1.03.28,1.85,2.24,2.2l3.9.7c1.25.23,4.78.87,4.07,4.29-.9,4.27-4.92,5.48-8.25,5.48-3.72,0-7.3-1.31-6.33-5.93h2.45Z"/>
    <path d="M175.21,126.73h8.5c3.63,0,5.15,1.69,4.5,4.8-.65,3.14-2.98,5.23-6.45,5.23h-6.21l-1.41,6.7h-2.45l3.51-16.73ZM181.89,134.61c2.43,0,3.51-1.34,3.88-3.02.32-1.59-.37-2.7-2.24-2.7h-6.33l-1.2,5.72h5.89Z"/>
    <path d="M191.8,126.73h13.26l-.46,2.16h-10.81l-1.02,4.85h10.49l-.44,2.16h-10.49l-1.13,5.41h11.04l-.46,2.16h-13.49l3.51-16.73Z"/>
    <path d="M220.36,132.76c.12-2.32-1.27-4.29-4.74-4.29-3.9,0-6.86,2.27-7.81,6.84-.67,3.16.35,6.42,4.9,6.42,2.89,0,5.36-1.41,6.75-4.66h2.45c-1.18,3.7-4.97,6.82-9.68,6.82-4.16,0-8.18-2.32-6.81-8.84,1.04-4.88,4.85-8.74,10.49-8.74,3.3,0,7.55,1.43,6.91,6.45h-2.45Z"/>
    <path d="M227.11,126.73h2.45l-3.51,16.73h-2.45l3.51-16.73Z"/>
    <path d="M241.78,138.59h-8.08l-3.12,4.88h-2.63l10.97-16.73h2.8l3.95,16.73h-2.8l-1.09-4.88ZM239.72,129.03l-4.64,7.41h6.26l-1.62-7.41Z"/>
    <path d="M250.95,126.73h2.45l-3.05,14.58h10.03l-.46,2.16h-12.48l3.51-16.73Z"/>
    <path d="M265.62,126.73h2.45l-3.51,16.73h-2.45l3.51-16.73Z"/>
    <path d="M267.33,141.24l14.37-12.35h-10.95l.46-2.16h14.16l-.46,2.16-14.42,12.42h12.01l-.46,2.16h-15.18l.46-2.23Z"/>
    <path d="M296.12,138.59h-8.08l-3.12,4.88h-2.63l10.97-16.73h2.8l3.95,16.73h-2.8l-1.09-4.88ZM294.06,129.03l-4.64,7.41h6.26l-1.62-7.41Z"/>
    <path d="M305.2,126.73h8.36c4.94,0,6.51,3.28,5.5,8.13-.97,4.66-3.81,8.6-8.87,8.6h-8.5l3.51-16.73ZM310.54,141.31c4.02,0,5.45-3.42,6.08-6.4.6-2.95.3-6.02-3.95-6.02h-5.47l-2.59,12.42h5.94Z"/>
    <path d="M332.05,138.59h-8.08l-3.12,4.88h-2.63l10.97-16.73h2.8l3.95,16.73h-2.8l-1.09-4.88ZM329.99,129.03l-4.64,7.41h6.26l-1.62-7.41Z"/>
  </g>
  <path d="M343.11,39.92c-1.77-.68-3.38-.82-5.39-.82-5.07,0-9,2.2-11.59,6.1-.09.14-.25.23-.42.23h-8.44c-.09,0-.18-.03-.24-.09-.28-.26-.94-1.09-.39-3,.69-2.38.49-4.58-1.81-6.16-2.69-1.84.91-4.22.91-4.22l5.84-4.84s1.72-1.66,3.22.56,1.25,3.31,5.66,2.94,8.66-1.53,9.73-2.77c1.72-1.98-.52-5.2,1.37-5.32.97-.06,6.3-.14,8.71,1.97,0,0,1.35.68-.8,2.72-1.92,1.82-2.13,7.92-1.97,8.95.1.63-3.44,4.11-4.38,3.75Z"/>
  <path d="M353.34,51.13c-.39.31-.55.81-.45,1.3.19.94.29,1.91.29,2.91,0,5.85-3.44,10.9-8.42,13.23-.19.09-.35.23-.47.41l-6,9.51c-.15.23.07.52.33.44,1.25-.35,3.76-1.04,5.07-1.19,1.78-.21,4.69-.31,6.31.44s1.73,2.33,2.85,3.86c1.13,1.54,3.77-.76,3.77-.76l6.12-5.58c.51-.43,1.66-2.38-.05-3.71-1.88-1.47-2.36-3.6-2.22-5.45.14-1.85,1.32-8.05,3.41-8.99s5.88.31,6.18-1.61c.25-1.6,0-8.49,0-8.49,0,0-.42-2.47-2.28-1.47-2.29,1.23-3.24,1.78-5.28,1.86-3.7.15-2.85-.69-4.07-.22-.89.34-4.05,2.67-5.09,3.51Z"/>
  <path class="cls-2" d="M340.88,45.96c3.84,0,7.11,2.42,8.38,5.81l8.63-7.53c.75.39,3.14,1.51,6.06.84,4.35-.99,6.07-5.1,6.34-5.78,1.15-2.88.6-5.55.07-7.06-.2-.59-.95-.75-1.37-.29l-4.98,5.36c-.81-.21-2.45-.76-4-2.19-1.51-1.39-2.18-2.93-2.47-3.72,1.3-1.59,2.61-3.19,3.91-4.78.38-.46.2-1.17-.35-1.37-.31-.11-.65-.21-1.03-.28-3.15-.58-6.45,1.3-8.21,3.81-2.55,3.65-1.27,7.81-1.11,8.32-3.29,2.96-6.58,5.92-9.88,8.88Z"/>
</svg>